<svg width="512" height="512" viewBox="0 0 512 512" fill="none" xmlns="http://www.w3.org/2000/svg">
<path d="M378.027 209.493V302.507C378.084 313.24 382.372 323.517 389.961 331.106C397.551 338.696 407.828 342.984 418.561 343.04H448.001V360.533C448.001 365.136 446.187 369.554 442.953 372.828C439.718 376.103 435.323 377.971 430.721 378.027H273.494V341.333C293.207 337.371 310.94 326.706 323.68 311.15C336.421 295.594 343.382 276.107 343.382 256C343.382 235.893 336.421 216.406 323.68 200.85C310.94 185.294 293.207 174.629 273.494 170.667V133.973H430.294C432.609 133.945 434.907 134.377 437.054 135.243C439.201 136.11 441.155 137.394 442.802 139.021C444.449 140.648 445.757 142.586 446.649 144.723C447.542 146.859 448.001 149.151 448.001 151.467V168.96H418.561C407.828 169.016 397.551 173.305 389.961 180.894C382.372 188.483 378.084 198.761 378.027 209.493Z" fill="#1FBD4B"/>
<path d="M168.96 256C168.944 276.06 175.857 295.509 188.53 311.058C201.202 326.607 218.857 337.302 238.507 341.334V378.027H81.7067C79.3915 378.055 77.0938 377.624 74.9467 376.757C72.7997 375.891 70.8459 374.607 69.1989 372.979C67.5518 371.352 66.2441 369.414 65.3517 367.278C64.4593 365.141 63.9998 362.849 64 360.534V343.04H93.44C104.173 342.984 114.45 338.696 122.039 331.106C129.629 323.517 133.917 313.24 133.973 302.507V209.494C133.917 198.761 129.629 188.484 122.039 180.894C114.45 173.305 104.173 169.016 93.44 168.96H64V151.467C63.9997 146.864 65.8134 142.447 69.048 139.172C72.2827 135.898 76.6775 134.03 81.28 133.974H238.08V170.667C218.509 174.785 200.952 185.516 188.364 201.057C175.776 216.599 168.924 236.001 168.96 256Z" fill="#1FBD4B"/>
<g opacity="0.3">
<path d="M99.2 209.493V302.507C99.2 304.034 98.5931 305.499 97.5129 306.58C96.4327 307.66 94.9676 308.267 93.44 308.267H64V203.733H93.44C94.9676 203.733 96.4327 204.34 97.5129 205.42C98.5931 206.501 99.2 207.966 99.2 209.493Z" fill="#1FBD4B"/>
</g>
<g opacity="0.3">
<path d="M448.001 203.733V308.267H418.561C417.033 308.267 415.568 307.66 414.488 306.58C413.408 305.499 412.801 304.034 412.801 302.507V209.493C412.801 207.966 413.408 206.501 414.488 205.42C415.568 204.34 417.033 203.733 418.561 203.733H448.001Z" fill="#1FBD4B"/>
</g>
<g opacity="0.3">
<path d="M308.266 256C308.24 266.793 304.888 277.316 298.665 286.135C292.443 294.953 283.652 301.639 273.492 305.28V206.72C283.652 210.362 292.443 217.047 298.665 225.866C304.888 234.685 308.24 245.207 308.266 256Z" fill="#1FBD4B"/>
<path d="M238.506 206.72V305.28C228.314 301.678 219.489 295.005 213.248 286.179C207.006 277.354 203.654 266.81 203.654 256C203.654 245.19 207.006 234.647 213.248 225.821C219.489 216.995 228.314 210.322 238.506 206.72Z" fill="#1FBD4B"/>
</g>
</svg>
